<?xml version="1.0" encoding="UTF-8"?>
<svg width="23px" height="24px" viewBox="0 0 23 24" version="1.1" xmlns="http://www.w3.org/2000/svg" xmlns:xlink="http://www.w3.org/1999/xlink">
    <!-- Generator: Sketch 43.2 (39069) - http://www.bohemiancoding.com/sketch -->
    <title>Icon/branding</title>
    <desc>Created with Sketch.</desc>
    <defs>
        <path d="M0,12 C0,19 4,24 11,24 C18,24 23,18 23,6 C18,9 14,6 17,1 C5,1 4.78783679e-16,5 0,12 Z" id="path-1"></path>
        <path d="M6,10 C6,10 2,9 1,7 C-4.85089399e-14,5 0.00179868699,4.4408921e-16 0.00179868699,4.4408921e-16 C2,4 8.00429893,1 9,7 C9,7 8,9 6,10 Z" id="path-2"></path>
    </defs>
    <g id="Case-Studies" stroke="none" stroke-width="1" fill="none" fill-rule="evenodd">
        <g id="Glifft-Case-Study" transform="translate(-181.000000, -4046.000000)">
            <g id="Branding" transform="translate(85.000000, 4043.000000)">
                <g id="Branding-Title">
                    <g id="Icon/branding" transform="translate(95.000000, 3.000000)">
                        <g>
                            <rect id="Rectangle" x="0" y="0" width="24" height="24"></rect>
                            <g id="shape" transform="translate(1.000000, 0.000000)">
                                <g id="Path-2">
                                    <use fill="#FFFFFF" fill-rule="evenodd" xlink:href="#path-1"></use>
                                    <path stroke="#292E41" stroke-width="1.5" d="M15.7645482,1.76455465 C13.7814842,6.3957396 17.467121,9.36021343 22.2311797,7.24565296 C21.9148403,17.5599038 17.6319945,23.25 11,23.25 C4.64244518,23.25 0.75,18.8385621 0.75,12 C0.75,5.44881328 5.42807007,2.01327536 15.7645482,1.76455465 Z"></path>
                                </g>
                                <path d="M4.2,14 C5.18865538,14 5.90079153,13.2653149 6,12.5 C6.08570198,11.8504418 5.2103561,11.0738398 4.8,11 C3.79026772,10.9370603 3.105307,11.5209594 3,12.5 C2.90944714,13.0196136 3.80674539,14 4.2,14 Z" id="Oval" fill="#48C6D4"></path>
                                <path d="M6.2,19 C7.18865538,19 7.90079153,18.2653149 8,17.5 C8.08570198,16.8504418 7.2103561,16.0738398 6.8,16 C5.79026772,15.9370603 5.105307,16.5209594 5,17.5 C4.90944714,18.0196136 5.80674539,19 6.2,19 Z" id="Oval-Copy" fill="#48C6D4"></path>
                                <path d="M11.2,21 C12.1886554,21 12.9007915,20.2653149 13,19.5 C13.085702,18.8504418 12.2103561,18.0738398 11.8,18 C10.7902677,17.9370603 10.105307,18.5209594 10,19.5 C9.90944714,20.0196136 10.8067454,21 11.2,21 Z" id="Oval-Copy-2" fill="#48C6D4"></path>
                                <path d="M6,9 L20,23 C20.9483708,22.9838596 22,22 22,21 L7.9984468,7.00398168" id="Path-4" stroke="#292E41" stroke-width="1.5" fill="#FFFFFF"></path>
                                <g id="Path-3">
                                    <use fill="#FFFFFF" fill-rule="evenodd" xlink:href="#path-2"></use>
                                    <path stroke="#292E41" stroke-width="1.5" d="M5.9102305,9.19756563 C5.77527043,9.15796622 5.60991007,9.10661149 5.42084429,9.04358957 C4.83996858,8.84996433 4.25971777,8.617864 3.7231653,8.34958777 C2.69192373,7.83396698 1.96456582,7.25208066 1.67082039,6.6645898 C1.37860202,6.08015306 1.14728056,5.08286347 0.988942835,3.81342166 C0.92111528,3.26962748 0.869028497,2.69836616 0.830736226,2.11735453 C1.57205687,2.61260829 2.55988018,2.94353809 3.98929255,3.29823637 C4.02836933,3.30793262 4.02836933,3.30793262 4.06734413,3.31760807 C6.81950852,4.0010144 7.78911871,4.65661788 8.2147047,6.8686895 C8.16865158,6.94537133 8.1112604,7.03658322 8.04262895,7.13953041 C7.79080955,7.5172595 7.48794867,7.89583561 7.13633658,8.24744769 C6.7595962,8.62418807 6.35031753,8.94576381 5.9102305,9.19756563 Z"></path>
                                </g>
                            </g>
                        </g>
                    </g>
                </g>
            </g>
        </g>
    </g>
</svg>