<?xml version="1.0" encoding="UTF-8"?>
<svg width="24px" height="24px" viewBox="0 0 24 24" version="1.1" xmlns="http://www.w3.org/2000/svg" xmlns:xlink="http://www.w3.org/1999/xlink">
    <!-- Generator: Sketch 43.2 (39069) - http://www.bohemiancoding.com/sketch -->
    <title>Icon/ideate</title>
    <desc>Created with Sketch.</desc>
    <defs></defs>
    <g id="Case-Studies" stroke="none" stroke-width="1" fill="none" fill-rule="evenodd">
        <g id="Artboard" transform="translate(-180.000000, -3261.000000)">
            <g id="Ideate" transform="translate(85.000000, 3258.000000)">
                <g id="Ideate-Title">
                    <g id="Icon/ideate" transform="translate(95.000000, 3.000000)">
                        <g>
                            <rect id="Rectangle" x="0" y="0" width="24" height="24"></rect>
                            <g id="shapes" transform="translate(1.000000, 1.000000)">
                                <path d="M0,22 L23,22" id="Path-5" stroke="#48C6D4" stroke-width="1.5"></path>
                                <path d="M3,15 L17.9974131,0 C17.9974131,0 22,0 22,4 L7,19 L1,21 L3,15 Z" id="Path-2" stroke="#292E41" stroke-width="1.5" fill="#FFFFFF"></path>
                                <path d="M2,19 C2,19 3,19 3,20 L1,21 L2,19 Z" id="Path-3" fill="#292E41"></path>
                                <path d="M3,15 C3,15 7,15 7,19" id="Path-4" stroke="#292E41" stroke-width="1.5"></path>
                                <path d="M15,3 C15,3 19,3 19,7" id="Path-4-Copy" stroke="#292E41" stroke-width="1.5"></path>
                            </g>
                        </g>
                    </g>
                </g>
            </g>
        </g>
    </g>
</svg>