<?xml version="1.0" encoding="UTF-8"?>
<svg width="940px" height="450px" viewBox="0 0 940 450" version="1.1" xmlns="http://www.w3.org/2000/svg" xmlns:xlink="http://www.w3.org/1999/xlink">
    <!-- Generator: sketchtool 42 (36781) - http://www.bohemiancoding.com/sketch -->
    <title>74A955C9-2CB1-454A-94F8-B13DEF0293CE</title>
    <desc>Created with sketchtool.</desc>
    <defs>
        <rect id="path-1" x="0" y="0" width="940" height="450"></rect>
        <path d="M33.4926531,42.800119 C26.7506427,41.2104557 21.3391878,37.1509895 19.7375179,29.7887404 C16.7497854,16.0553043 24.3521092,4.8566709 37.7609155,1.01175755 C51.1697219,-2.83315581 65.7235743,5.81502589 68.8212246,16.6178161 C71.8219514,27.0825944 66.1620358,37.406436 53.6157872,41.5374169 C61.3604539,55.8204581 74.4656488,66.9310627 74.4656488,66.9310627 C74.4656488,66.9310627 79.7672795,64.6799526 80.9385299,66.2419217 C82.1097803,67.8038907 77.4707519,71.6130336 77.4707519,71.6130336 C77.4707519,71.6130336 83.6791722,75.9202842 79.1465618,80.3912381 C74.4656501,84.7593042 58.0703827,62.0298499 58.0703827,62.0298499 C58.0703827,62.0298499 61.1169211,76.1052557 53.8201666,86.192327 C47.8008683,93.7064913 39.8896213,92.2221045 33.7404661,97.1655735 C28.0964522,103.054294 33.9721298,114.265173 33.9721298,114.265173 C33.9721298,114.265173 23.1036782,120.950051 22.1246497,119.642829 C21.1456211,118.335608 28.7189095,111.876412 28.7189095,111.876412 C28.7189095,111.876412 18.8944083,104.461051 18.8944086,97.1420131 C18.8944089,89.8229755 28.7189106,83.0312181 28.7189106,83.0312181 C28.7189106,83.0312181 22.9914963,84.3585445 17.9436084,86.7931166 C13.1146346,91.1040218 14.3152972,103.891407 14.3152972,103.891407 C14.3152972,103.891407 0.919271082,110.990521 0.0983210055,107.8201 C-0.722629071,104.64968 8.12498064,101.541914 8.12498064,101.541914 C8.12498064,101.541914 3.49619995,82.8801338 6.69323339,77.2465832 C9.89026682,71.6130326 22.6981314,70.2585966 25.9826669,68.6300283 C30.0637887,67.1167893 32.9175044,47.1479092 33.4926531,42.800119 Z" id="path-3"></path>
    </defs>
    <g id="Page-2" stroke="none" stroke-width="1" fill="none" fill-rule="evenodd">
        <g id="Home" transform="translate(-170.000000, 0.000000)">
            <g id="background-img" transform="translate(170.000000, 0.000000)">
                <mask id="mask-2" fill="white">
                    <use xlink:href="#path-1"></use>
                </mask>
                <use id="Mask" fill="#292E41" xlink:href="#path-1"></use>
                <g id="Group" mask="url(#mask-2)">
                    <path d="M195,320 C302.695526,320 390,232.695526 390,125 C390,77.4418939 372.974876,33.8602185 344.686903,0.0172477576 L45.3027865,0.029584288 C17.0209868,33.8708092 0,77.4476724 0,125 C0,232.695526 87.3044738,320 195,320 Z" id="Oval-3-Copy" fill="#333B59"></path>
                    <circle id="Oval-3" fill="#4A5680" cx="195" cy="125" r="120"></circle>
                    <g id="moon" transform="translate(141.000000, 71.000000)">
                        <circle id="Oval" fill="#8891B3" cx="54" cy="54" r="54"></circle>
                        <path d="M24.0652443,98.9503104 C9.55681556,89.2691224 0,72.7506181 0,54 C0,24.1766235 24.1766235,0 54,0 C60.2870644,0 66.3231825,1.07442931 71.9347557,3.04968955 C86.4431844,12.7308776 96,29.2493819 96,48 C96,77.8233765 71.8233765,102 42,102 C35.7129356,102 29.6768175,100.925571 24.0652443,98.9503104 Z" id="Combined-Shape" fill="#E4E8F7"></path>
                        <circle id="Oval-2" fill="#8891B3" cx="21" cy="30.6" r="6.6"></circle>
                        <circle id="Oval-2-Copy-7" fill="#8891B3" cx="11.4" cy="65.4" r="1.8"></circle>
                        <circle id="รง" fill="#E4E8F7" cx="95.4" cy="52.2" r="10.2"></circle>
                        <circle id="Oval-2-Copy" fill="#8891B3" cx="96" cy="52.8" r="7.2"></circle>
                        <circle id="Oval-2-Copy-2" fill="#8891B3" cx="36" cy="86.4" r="4.8"></circle>
                        <circle id="Oval-2-Copy-8" fill="#E4E8F7" cx="73.8" cy="90.6" r="3"></circle>
                        <circle id="Oval-2-Copy-6" fill="#8891B3" cx="73.8" cy="90.6" r="1.8"></circle>
                        <circle id="Oval-2-Copy-4" fill="#8891B3" cx="59.4" cy="52.2" r="3"></circle>
                        <circle id="Oval-2-Copy-3" fill="#8891B3" cx="64.8" cy="15.6" r="3.6"></circle>
                    </g>
                    <circle id="Oval-7" fill="#8891B3" cx="869" cy="165" r="5"></circle>
                    <circle id="Oval-7-Copy" fill="#8891B3" cx="418" cy="102" r="5"></circle>
                    <circle id="Oval-7-Copy-4" fill="#8891B3" cx="335" cy="304" r="5"></circle>
                    <circle id="Oval-7-Copy-5" fill="#8891B3" cx="561" cy="201" r="10"></circle>
                    <circle id="Oval-7-Copy-7" fill="#8891B3" cx="619" cy="46" r="10"></circle>
                    <circle id="Oval-7-Copy-6" fill="#8891B3" cx="112" cy="383" r="10"></circle>
                    <circle id="Oval-7-Copy-3" fill="#8891B3" cx="704" cy="303" r="5"></circle>
                    <path d="M742.533031,134.070735 L741.032184,122 L739.531662,134.068123 L733,135.438439 L739.530074,136.808422 L741.032184,149 L742.534616,136.805808 L749,135.438439 L742.533031,134.070735 Z" id="Combined-Shape" fill="#D8D8D8"></path>
                    <path d="M468.149773,414.941285 L467.024138,406 L465.898747,414.939351 L461,415.9544 L465.897556,416.969202 L467.024138,426 L468.150962,416.967265 L473,415.9544 L468.149773,414.941285 Z" id="Combined-Shape-Copy-3" fill="#D8D8D8"></path>
                    <path d="M40.9162887,247.753121 L39.0402302,233 L37.1645776,247.749929 L29,249.424759 L37.1625927,251.099183 L39.0402302,266 L40.9182702,251.095988 L49,249.424759 L40.9162887,247.753121 Z" id="Combined-Shape-Copy-2" fill="#D8D8D8"></path>
                </g>
                <g id="Astronaut" mask="url(#mask-2)">
                    <g transform="translate(875.066987, 388.750000) rotate(30.000000) translate(-875.066987, -388.750000) translate(798.066987, 328.750000)">
                        <g id="Backpack" transform="translate(47.146798, 41.541226)">
                            <path d="M16.5732203,51.5553434 C17.6240264,51.3868336 18.397555,50.9434334 18.7323353,50.1177594 C20.6714971,45.3351724 29.8071827,4.77768378 26.1160405,1.91632342 C22.4248982,-0.94503694 4.8313039,0.501177417 4.8313039,0.501177417 L0.133466053,46.8571739 C0.133466053,46.8571739 9.14763055,51.2091399 14.6865012,51.6071586 C16.186005,55.9744404 20.1757932,63.9116257 29.4173638,64.1769119 C42.1888776,64.5435277 57.5915724,42.7483406 77.2643567,34.9567362 C84.6894536,32.0159518 94.2028867,38.5372901 103.641955,46.5786904 L105.148945,45.7086295 C94.8429765,36.7986554 84.1695512,29.1256296 75.7431848,32.9322543 C55.3086919,42.1635697 40.8218789,62.8423493 29.1062609,62.0265285 C21.5513866,61.5004425 18.0835261,55.6467846 16.5732203,51.5553434 Z" id="Combined-Shape" fill="#7B9FA6"></path>
                            <path d="M17.8904297,0.21721744 C21.4727715,0.38739454 24.7485266,0.856231564 26.1160405,1.91632342 C29.8071827,4.77768378 20.6714971,45.3351724 18.7323353,50.1177594 C18.0185306,51.8782275 15.3101321,51.9008401 12.1722765,51.2264662 C12.592031,50.3835269 17.8882761,39.5517518 19.7414318,26.0070701 C21.5059826,13.1099995 18.4311351,2.02472766 17.8904297,0.21721744 Z" id="Combined-Shape" fill="#46676E"></path>
                        </g>
                        <g id="Body" transform="translate(-0.000000, -0.000000)">
                            <path d="M34.6613732,43.3470914 C34.6613732,43.3470914 23.1516712,52.7658234 19.2661484,53.7181287 C19.2661484,53.7181287 15.3825276,51.0745236 14.4309321,52.2293836 C13.4793366,53.3842436 15.9517347,55.6592402 15.9517347,55.6592402 C15.9517347,55.6592402 11.1595135,57.9056179 12.7952228,61.111676 C14.4309321,64.317734 22.4884844,59.3167107 22.4884844,59.3167107 L34.7393728,51.6457529 L34.6613732,43.3470914 Z" id="Path-4" fill="#7B9FA6"></path>
                            <mask id="mask-4" fill="white">
                                <use xlink:href="#path-3"></use>
                            </mask>
                            <use id="Mask" fill="#ECEEF1" xlink:href="#path-3"></use>
                        </g>
                        <g id="Face" transform="translate(19.027101, 10.976340)">
                            <path d="M1.85071092,7.81773915 C14.7717202,1.70667468 33.2195927,-2.11382235 38.1611058,2.1830616 C43.102619,6.47994554 41.3698494,21.9075895 38.6730591,25.7949034 C35.9762689,29.6822173 15.5334473,32.1084249 15.5334473,32.1084249 C15.5334473,32.1084249 7.0394751,30.5225837 3.46746248,23.6648698 C-0.104550136,16.8071559 1.85071092,7.81773915 1.85071092,7.81773915 Z" id="Path-5" fill="#7B9FA6"></path>
                            <path d="M0.645660969,7.58557536 C13.5666702,1.4745109 32.0145428,-2.34598613 36.9560559,1.95089781 C41.897569,6.24778176 40.1647994,21.6754258 37.4680092,25.5627396 C34.7712189,29.4500535 14.3283974,31.8762612 14.3283974,31.8762612 C14.3283974,31.8762612 5.83442515,30.29042 2.26241253,23.432706 C-1.30960009,16.5749921 0.645660969,7.58557536 0.645660969,7.58557536 Z" id="Combined-Shape" fill="#485254"></path>
                            <path d="M22.6070137,0.730132167 C15.5759577,1.85006595 7.36376091,4.40821197 0.645660969,7.58557536 C0.645660969,7.58557536 -1.58810125,15.4961909 2.26241253,23.432706 C4.76521554,28.5913771 10.5746835,30.8132767 13.1091994,31.5613792 C11.5860094,30.265527 4.45448186,23.4429355 10.064385,13.4963275 C13.0977057,8.11811475 18.1791187,3.77571742 22.6070159,0.730130847 Z" id="Combined-Shape" fill="#525E61"></path>
                        </g>
                        <g id="Details" transform="translate(27.446172, 50.322299)">
                            <path d="M1.59267071,14.3103713 C7.04093229,14.0042385 16.5301239,14.8042737 17.9961011,15.7141363 C18.592874,16.5761305 17.6626064,18.3528715 17.6626064,18.3528715 C11.142066,16.9756599 3.65448169,17.293273 0.638157794,16.689463 C0.511025184,15.8377799 0.785235767,14.9084107 1.59267071,14.3103713 Z M4.78402628,1.91709524 C9.05096816,-0.425803408 18.3313377,0.793768981 20.16874,2.15595117 C21.7795205,3.35012438 21.0373293,8.82603223 19.5154994,12.2404759 C12.402931,12.6990426 6.7003665,12.3825911 2.53768766,11.5466012 C2.53768766,6.55799032 2.72981372,5.69363318 4.78402628,1.91709524 Z" id="Combined-Shape" fill="#485254"></path>
                            <path d="M1.08755005,13.8037725 C6.53594231,13.4976324 16.0253615,14.2976868 17.4913739,15.2075712 C18.0881611,16.0695861 17.1578712,17.8463697 17.1578712,17.8463697 C10.6371743,16.4691251 3.14941048,16.7867458 0.133014241,16.1829213 C0.00587858163,15.3312178 0.280095742,14.4018263 1.08755005,13.8037725 Z M4.27885262,1.41047764 C8.54573866,-0.932390355 17.8259868,0.287166074 19.663365,1.64933044 C21.2741244,2.84348802 20.5319429,8.31932421 19.010133,11.7337232 C11.8976576,12.1922839 6.19516776,11.8758365 2.03254339,11.0398576 C2.03254339,6.05131198 2.22466694,5.18696615 4.27885262,1.41047764 Z" id="Combined-Shape" fill="#5E6B6E"></path>
                            <path d="M14.0598487,8.27447192 C12.1896333,8.27447192 11.7866995,7.40502327 11.7866995,6.33250402 C11.7866995,5.25998476 12.8044231,4.39053612 14.0598487,4.39053612 C15.3152743,4.39053612 16.3329979,5.25998476 16.3329979,6.33250402 C16.3329979,7.40502327 15.9300641,8.27447192 14.0598487,8.27447192 Z M6.31430331,7.62011317 C4.6427395,7.62011317 4.37791696,6.8593456 4.37791696,5.92089126 C4.37791696,4.98243691 5.24486666,4.22166935 6.31430331,4.22166935 C7.38373996,4.22166935 8.25068966,4.98243691 8.25068966,5.92089126 C8.25068966,6.8593456 7.98586713,7.62011317 6.31430331,7.62011317 Z" id="Combined-Shape-Copy" fill="#B35454"></path>
                            <path d="M13.5547044,7.93673837 C11.684489,7.93673837 11.2815553,7.06728973 11.2815553,5.99477047 C11.2815553,4.92225121 12.2992788,4.05280257 13.5547044,4.05280257 C14.8101301,4.05280257 15.8278536,4.92225121 15.8278536,5.99477047 C15.8278536,7.06728973 15.4249198,7.93673837 13.5547044,7.93673837 Z M5.80915905,7.28237962 C4.13759524,7.28237962 3.8727727,6.52161206 3.8727727,5.58315771 C3.8727727,4.64470336 4.7397224,3.8839358 5.80915905,3.8839358 C6.8785957,3.8839358 7.7455454,4.64470336 7.7455454,5.58315771 C7.7455454,6.52161206 7.48072286,7.28237962 5.80915905,7.28237962 Z" id="Combined-Shape" fill="#F38A8A"></path>
                        </g>
                        <g id="Shadows" transform="translate(12.291844, 0.337734)">
                            <path d="M36.4576548,0.109186741 C45.9746175,1.71495791 54.2779523,8.42841849 56.5293808,16.2800825 C59.5282369,26.7383365 53.877246,37.0558297 41.3474013,41.1919498 C41.6796658,40.9952118 54.6489209,33.2273601 52.984015,20.3692388 C51.3326523,7.6157111 37.051862,0.404082771 36.4576548,0.109186741 Z" id="Combined-Shape" fill="#BED9DE"></path>
                            <path d="M45.7886502,61.7405726 C45.974422,62.6481274 48.5760732,76.1117467 41.5283229,85.8545934 C36.4230141,92.2277829 29.9566943,92.1276853 24.3588344,94.9665451 C24.3123147,94.9716285 24.2882551,94.973907 24.2882551,94.973907 C24.2882551,94.973907 34.422295,89.9533079 38.2067844,82.5955478 C43.2878852,73.1314159 43.594675,58.2447937 43.594675,58.2447937 L45.7886502,61.7405726 Z" id="Combined-Shape" fill="#BED9DE"></path>
                            <path d="M16.4000897,82.699817 C15.9708475,82.8012289 10.4981296,84.1180045 5.65176457,86.4553831 C0.933880519,90.6671166 1.97140232,102.969816 2.02163516,103.53363 L2.01391415,103.558715 C2.01300006,103.559198 2.01202094,103.559715 2.0109771,103.560265 C1.96301422,103.235076 -0.223145652,88.3209704 1.88319676,85.7589144 C4.01277779,83.1685919 16.7842468,82.4804261 16.7842468,82.4804261 L16.4000897,82.699817 Z" id="Combined-Shape" fill="#BED9DE"></path>
                            <path d="M15.4796269,55.6710077 L10.1966406,58.9789772 C10.1966406,58.9789772 2.13908833,63.9800004 0.503379036,60.7739424 C-1.13233026,57.5678844 3.65989096,55.3215066 3.65989096,55.3215066 C3.65989096,55.3215066 1.18749279,53.0465101 2.13908831,51.89165 C3.09068383,50.73679 6.97430457,53.3803952 6.97430457,53.3803952 C9.07928146,52.864485 13.4218911,49.8637495 16.9598713,47.2219056 C16.8873934,49.8774616 16.2340188,52.949376 15.4796269,55.6710077 Z" id="Combined-Shape" fill="#BED9DE"></path>
                            <path d="M60.1750256,77.944262 C60.1750256,77.944262 57.9374101,74.2749687 60.1750256,71.8480759 C62.4126411,69.4211831 65.6986776,71.6703752 65.6986776,71.6703752 C65.6986776,71.6703752 61.6555303,68.3325787 59.0177891,71.6703752 C56.3800479,75.0081717 60.1750256,77.944262 60.1750256,77.944262 Z" id="Path-15" fill="#46676E"></path>
                            <path d="M3.5974272,55.3473268 C3.5974272,55.3473268 6.91145755,55.2764761 7.75383066,57.0175872 C8.59620378,58.7586982 6.48409487,60.8613283 6.48409487,60.8613283 C6.48409487,60.8613283 9.28438109,59.023275 8.45575703,56.6578501 C7.56786658,54.1232409 3.5974272,55.3473268 3.5974272,55.3473268 Z" id="Path-16" fill="#46676E"></path>
                        </g>
                    </g>
                </g>
            </g>
        </g>
    </g>
</svg>