<?xml version="1.0" encoding="UTF-8"?>
<svg width="1920px" height="660px" viewBox="0 0 1920 660" version="1.1" xmlns="http://www.w3.org/2000/svg" xmlns:xlink="http://www.w3.org/1999/xlink">
    <!-- Generator: sketchtool 41.2 (35397) - http://www.bohemiancoding.com/sketch -->
    <title>5E53C223-9569-43B8-B5AD-62DFDB4E96EA</title>
    <desc>Created with sketchtool.</desc>
    <defs>
        <path d="M69.4481065,53.6428599 C85.6890483,48.2897618 93.022967,34.9508829 89.1483781,21.4385856 C85.1472465,7.48498157 66.3069822,-3.67367554 48.9373506,1.30698615 C31.5677191,6.28764784 21.7108493,20.7632167 25.5667345,38.5031757 C27.6350016,48.0187527 34.6463212,53.2585987 43.383426,55.3032012 C42.6323833,60.9594623 38.9381661,86.6947971 33.6576827,88.6471198 C29.4029288,90.7506873 12.8117512,92.5001671 8.67034652,99.7768366 C4.52894189,107.053506 10.5250174,131.158305 10.5250174,131.158305 C10.5250174,131.158305 -0.936086356,135.172503 0.127364032,139.26763 C1.19081442,143.362756 18.5438905,134.193068 18.5438905,134.193068 C18.5438905,134.193068 16.9885644,117.676028 23.2439679,112.107776 C29.7829507,108.96312 37.202185,107.248657 37.202185,107.248657 C37.202185,107.248657 24.4756253,116.021343 24.4756249,125.4751 C24.4756246,134.928857 37.2021835,144.507033 37.2021835,144.507033 C37.2021835,144.507033 27.3918227,152.850161 28.6600464,154.538655 C29.9282701,156.227149 44.0071518,147.592515 44.0071518,147.592515 C44.0071518,147.592515 36.3958588,133.111796 43.7070569,125.505532 C51.6726101,119.120218 61.9207591,121.037551 69.718097,111.331756 C79.1702386,98.3026219 75.2237837,80.1218895 75.2237837,80.1218895 C75.2237837,80.1218895 96.4620466,109.480768 102.525652,103.838683 C108.397149,98.0637004 100.354825,92.5001684 100.354825,92.5001684 C100.354825,92.5001684 106.364175,87.5800255 104.846949,85.5624821 C103.329723,83.5449388 96.4620449,86.4526227 96.4620449,86.4526227 C96.4620449,86.4526227 79.4798059,72.0964352 69.4481148,53.6428754 Z" id="path-1"></path>
    </defs>
    <g id="Page-2" stroke="none" stroke-width="1" fill="none" fill-rule="evenodd">
        <g id="Hero-Image">
            <g>
                <g id="Space">
                    <rect id="Rectangle-3" fill="#292E41" x="0" y="0" width="1920" height="660"></rect>
                    <path d="M463.783837,594.452063 C739.916414,565.761284 1105.72454,338.426318 1305.13355,-1.13686838e-13 L0,-6.31088724e-29 L0,426.341235 C0,426.341235 187.65126,623.142842 463.783837,594.452063 Z" id="Oval-2" fill="#333B59"></path>
                    <path d="M370.989104,475.713133 C591.872561,452.753198 884.489118,270.827295 1044,0 L0,9.09784407e-14 L0,341.181631 C0,341.181631 150.105647,498.673068 370.989104,475.713133 Z" id="Oval-2-Copy" fill="#4A5680"></path>
                    <path d="M278.952535,357.282458 C445.038276,340.03849 665.061262,203.403763 785,0 L0,6.83289963e-14 L0,256.243108 C0,256.243108 112.866794,374.526425 278.952535,357.282458 Z" id="Oval-2-Copy-2" fill="#8891B3"></path>
                    <circle id="Oval-3" fill="#FFFFFF" opacity="0.5" cx="1333" cy="139" r="12"></circle>
                    <circle id="Oval-3-Copy" fill="#FFFFFF" opacity="0.5" cx="1510" cy="268" r="12"></circle>
                    <path d="M1184,395 C1190.62742,395 1196,389.627417 1196,383 C1196,376.372583 1190.62742,371 1184,371 C1177.37258,371 1172,376.372583 1172,383 C1172,389.627417 1177.37258,395 1184,395 Z" id="Oval-3-Copy-2" fill="#FFFFFF" opacity="0.5"></path>
                    <circle id="Oval-3-Copy-9" fill="#FFFFFF" opacity="0.5" cx="1007" cy="101" r="12"></circle>
                    <circle id="Oval-3-Copy-10" fill="#FFFFFF" opacity="0.5" cx="375" cy="543" r="12"></circle>
                    <circle id="Oval-3-Copy-23" fill="#FFFFFF" opacity="0.5" cx="556" cy="330" r="12"></circle>
                    <circle id="Oval-3-Copy-14" fill="#FFFFFF" opacity="0.5" cx="72" cy="373" r="12"></circle>
                    <circle id="Oval-3-Copy-15" fill="#FFFFFF" opacity="0.5" cx="1741" cy="106" r="12"></circle>
                    <circle id="Oval-3-Copy-16" fill="#FFFFFF" opacity="0.5" cx="1564" cy="417" r="12"></circle>
                    <circle id="Oval-3-Copy-17" fill="#FFFFFF" opacity="0.5" cx="1832" cy="584" r="12"></circle>
                    <circle id="Oval-3-Copy-3" fill="#FFFFFF" opacity="0.5" cx="1543" cy="567" r="12"></circle>
                    <circle id="Oval-3-Copy-4" fill="#FFFFFF" opacity="0.5" cx="812" cy="567" r="12"></circle>
                    <circle id="Oval-3-Copy-5" fill="#FFFFFF" opacity="0.5" cx="933" cy="495" r="5"></circle>
                    <circle id="Oval-3-Copy-11" fill="#FFFFFF" opacity="0.5" cx="607" cy="572" r="5"></circle>
                    <circle id="Oval-3-Copy-21" fill="#FFFFFF" opacity="0.5" cx="183" cy="434" r="5"></circle>
                    <circle id="Oval-3-Copy-22" fill="#FFFFFF" opacity="0.5" cx="55" cy="612" r="5"></circle>
                    <circle id="Oval-3-Copy-12" fill="#FFFFFF" opacity="0.5" cx="755" cy="361" r="5"></circle>
                    <circle id="Oval-3-Copy-13" fill="#FFFFFF" opacity="0.5" cx="1123" cy="203" r="5"></circle>
                    <circle id="Oval-3-Copy-6" fill="#FFFFFF" opacity="0.5" cx="1496" cy="118" r="5"></circle>
                    <circle id="Oval-3-Copy-8" fill="#FFFFFF" opacity="0.5" cx="1261" cy="569" r="5"></circle>
                    <circle id="Oval-3-Copy-24" fill="#FFFFFF" opacity="0.5" cx="1063" cy="622" r="5"></circle>
                    <circle id="Oval-3-Copy-7" fill="#FFFFFF" opacity="0.5" cx="1423" cy="504" r="5"></circle>
                    <circle id="Oval-3-Copy-18" fill="#FFFFFF" opacity="0.5" cx="1758" cy="473" r="5"></circle>
                    <circle id="Oval-3-Copy-20" fill="#FFFFFF" opacity="0.5" cx="1633" cy="602" r="5"></circle>
                    <circle id="Oval-3-Copy-19" fill="#FFFFFF" opacity="0.5" cx="1690" cy="273" r="5"></circle>
                </g>
                <g id="Astronaut" transform="translate(1389.053729, 527.342910) rotate(37.000000) translate(-1389.053729, -527.342910) translate(1252.053729, 449.842910)">
                    <g id="Backpack" transform="translate(61.073483, 53.657417)">
                        <path d="M21.4687812,66.5923186 C22.8299848,66.3746601 23.8320058,65.8019348 24.2656768,64.7354392 C26.7776474,58.557931 38.6119217,6.17117488 33.8304535,2.47525108 C29.0489853,-1.22067271 6.25842198,0.647354163 6.25842198,0.647354163 L0.172890569,60.5238496 C0.172890569,60.5238496 11.8497477,66.145139 19.0247444,66.6592465 C20.9671864,72.3003189 26.1355175,82.5525165 38.1069542,82.8951778 C54.6510433,83.3687232 74.6035377,55.2166065 100.087463,45.152451 C125.571387,35.0882954 170.045457,110.820019 181.403638,81.5492093 C193.832395,49.5194517 210.644766,88.4297726 210.644766,88.4297726 L211.979839,87.4237232 C211.979839,87.4237232 195.866324,45.9692069 180.220489,79.9791171 C168.372093,105.734399 124.587586,30.6137128 98.116952,42.5374952 C71.6463176,54.4612775 52.8802471,81.1713679 37.7039546,80.1175994 C27.9174473,79.4380715 23.425216,71.8770967 21.4687812,66.5923186 Z" id="Combined-Shape" fill="#6C9299"></path>
                        <path d="M23.1750809,0.280572527 C27.81561,0.500384614 32.0589899,1.10596577 33.8304535,2.47525108 C38.6119217,6.17117488 26.7776474,58.557931 24.2656768,64.7354392 C23.3410215,67.0093772 19.8325896,67.0385851 15.7678433,66.1675188 C16.311589,65.0787222 23.1722911,51.0876794 25.5728501,33.5924655 C27.8586314,16.9337494 23.8755051,2.61527323 23.1750809,0.280572527 Z" id="Combined-Shape" fill="#557378"></path>
                    </g>
                    <g id="Body" transform="translate(-0.000000, -0.000000)">
                        <path d="M44.8999907,55.9899931 C44.8999907,55.9899931 29.9904397,68.1558552 24.9571728,69.3859163 C24.9571728,69.3859163 19.92637,65.9712596 18.6936828,67.4629538 C17.4609956,68.954648 20.6637151,71.8931852 20.6637151,71.8931852 C20.6637151,71.8931852 14.4559204,74.7947565 16.5748016,78.9359148 C18.6936828,83.0770731 29.1313541,76.617418 29.1313541,76.617418 L45.0010306,66.7090975 L44.8999907,55.9899931 Z" id="Path-4" fill="#557378"></path>
                        <mask id="mask-2" fill="white">
                            <use xlink:href="#path-1"></use>
                        </mask>
                        <use id="Mask" fill="#ECEEF1" xlink:href="#path-1"></use>
                    </g>
                    <g id="Face" transform="translate(24.647513, 14.177773)">
                        <path d="M2.39739212,10.0979131 C19.1351363,2.20445479 43.0323229,-2.73035386 49.4335088,2.8197879 C55.8346946,8.36992966 53.5900825,28.2973032 50.0966878,33.3184169 C46.6032932,38.3395306 20.1218698,41.4733822 20.1218698,41.4733822 C20.1218698,41.4733822 9.11886452,39.425004 4.49171567,30.5671235 C-0.135433184,21.709243 2.39739212,10.0979131 2.39739212,10.0979131 Z" id="Path-5" fill="#6C9299"></path>
                        <path d="M0.836382658,9.79803484 C17.5741268,1.90457657 41.4713134,-3.03023208 47.8724993,2.51990968 C54.2736852,8.07005144 52.029073,27.9974249 48.5356784,33.0185387 C45.0422837,38.0396524 18.5608604,41.173504 18.5608604,41.173504 C18.5608604,41.173504 7.55785506,39.1251258 2.9307062,30.2672453 C-1.69644265,21.4093648 0.836382658,9.79803484 0.836382658,9.79803484 Z" id="Combined-Shape" fill="#485254"></path>
                        <path d="M29.2848958,0.943087383 C20.1769374,2.38966851 9.53894106,5.69394046 0.836382658,9.79803484 C0.836382658,9.79803484 -2.05721022,20.0159132 2.9307062,30.2672453 C6.1728118,36.9305287 13.6983376,39.8004824 16.9815238,40.7667814 C15.0083988,39.0929724 5.77029054,30.2804584 13.037302,17.4327564 C16.9666349,10.4858982 23.5490457,4.87696834 29.2848987,0.943085677 Z" id="Combined-Shape" fill="#525E61"></path>
                    </g>
                    <g id="Details" transform="translate(35.553492, 64.999636)">
                        <path d="M2.06312945,18.4842295 C9.12075215,18.0888081 21.4129546,19.1221868 23.3119666,20.2974261 C24.0850201,21.4108352 22.8799609,23.7057923 22.8799609,23.7057923 C14.433319,21.9268941 4.73397845,22.3371443 0.826663122,21.557223 C0.661976831,20.4571323 1.01718643,19.2566972 2.06312945,18.4842295 Z M6.19717903,2.47624802 C11.7245322,-0.549996069 23.7462286,1.02528493 26.1263808,2.78477026 C28.2129696,4.327244 27.2515426,11.4002916 25.2801797,15.8106147 C16.0666308,16.40293 8.67958668,15.9941801 3.28729481,14.9143599 C3.28729481,8.47073749 3.53617295,7.35427619 6.19717903,2.47624802 Z" id="Combined-Shape" fill="#485254"></path>
                        <path d="M1.40880128,17.8298729 C8.46659326,17.4344419 20.7590905,18.4678454 22.658148,19.6431129 C23.4312201,20.7565487 22.226132,23.0515609 22.226132,23.0515609 C13.7792876,21.2726199 4.07971434,21.68288 0.172305296,20.90294 C0.00761505492,19.802823 0.362833179,18.602359 1.40880128,17.8298729 Z M5.5427822,1.82186695 C11.070063,-1.20433754 23.0916021,0.370922846 25.4717232,2.13038515 C27.5582846,3.6728387 26.5968702,10.7457938 24.6255331,15.1560591 C15.4121048,15.7483667 8.02515737,15.3396221 2.63293606,14.259816 C2.63293606,7.81627797 2.88181095,6.69983127 5.5427822,1.82186695 Z" id="Combined-Shape" fill="#5E6B6E"></path>
                        <path d="M18.2129852,10.6878596 C20.6356432,10.6878596 21.1575995,9.56482173 21.1575995,8.17948436 C21.1575995,6.79414698 19.8392508,5.67110915 18.2129852,5.67110915 C16.5867196,5.67110915 15.2683708,6.79414698 15.2683708,8.17948436 C15.2683708,9.56482173 15.7903271,10.6878596 18.2129852,10.6878596 Z M8.17948436,9.84264618 C10.3448111,9.84264618 10.6878596,8.85998807 10.6878596,7.64781787 C10.6878596,6.43564767 9.56482173,5.45298957 8.17948436,5.45298957 C6.79414698,5.45298957 5.67110915,6.43564767 5.67110915,7.64781787 C5.67110915,8.85998807 6.01415758,9.84264618 8.17948436,9.84264618 Z" id="Combined-Shape-Copy" fill="#B35454"></path>
                        <path d="M17.5586264,10.2516204 C19.9812844,10.2516204 20.5032408,9.12858256 20.5032408,7.74324519 C20.5032408,6.35790782 19.184892,5.23486999 17.5586264,5.23486999 C15.9323608,5.23486999 14.614012,6.35790782 14.614012,7.74324519 C14.614012,9.12858256 15.1359684,10.2516204 17.5586264,10.2516204 Z M7.52512561,9.40640701 C9.69045238,9.40640701 10.0335008,8.42374891 10.0335008,7.21157871 C10.0335008,5.99940851 8.91046298,5.01675041 7.52512561,5.01675041 C6.13978824,5.01675041 5.01675041,5.99940851 5.01675041,7.21157871 C5.01675041,8.42374891 5.35979883,9.40640701 7.52512561,9.40640701 Z" id="Combined-Shape" fill="#F38A8A"></path>
                    </g>
                    <g id="Shadows" transform="translate(15.922730, 0.436239)">
                        <path d="M53.6040258,53.1806121 C69.7899875,47.8104204 77.0939775,34.4928127 73.2256485,21.0023464 C70.3188995,10.8653081 59.580417,2.20337483 47.2636812,0.133037669 L47.2021502,0.128869986 C47.2021502,0.128869986 66.4502907,9.48652996 68.6349547,26.3102667 C70.7499896,42.5978007 54.6334976,52.562003 53.6040258,53.1806121 Z" id="Combined-Shape" fill="#BED9DE"></path>
                        <path d="M31.5541865,122.665121 C38.8055975,118.99826 47.1820024,119.127553 53.7953675,110.895517 C62.9249516,98.3110062 59.5547991,80.9204979 59.3141522,79.7482396 L56.4720991,75.2328585 C56.4720991,75.2328585 56.0746866,94.4614122 49.4926803,106.685916 C44.5902912,116.189689 31.4627588,122.67463 31.4627588,122.67463 C31.4627588,122.67463 31.4939254,122.671687 31.5541865,122.665121 Z" id="Combined-Shape" fill="#BED9DE"></path>
                        <path d="M2.6049993,133.765343 C2.60635149,133.764631 2.60761982,133.763964 2.60880392,133.763341 L2.61880565,133.730939 C2.55373454,133.002679 1.20973933,117.111692 7.3212384,111.671536 C13.5991704,108.652423 20.6884736,106.951587 21.2445095,106.820597 L21.7421427,106.537217 C21.7421427,106.537217 5.19811157,107.426098 2.43947394,110.771931 C-0.28906061,114.081253 2.54286867,133.345306 2.6049993,133.765343 Z" id="Combined-Shape" fill="#BED9DE"></path>
                        <path d="M21.9696449,60.9949614 C17.3865814,64.4073431 11.761209,68.2832932 9.03444328,68.9496771 C9.03444328,68.9496771 4.00364043,65.5350205 2.77095327,67.0267146 C1.5382661,68.5184088 4.74098556,71.456946 4.74098556,71.456946 C4.74098556,71.456946 -1.46680911,74.3585173 0.652072089,78.4996756 C2.77095329,82.6408339 13.2086246,76.1811789 13.2086246,76.1811789 L20.0521514,71.9083849 C21.029383,68.392944 21.8757579,64.4250545 21.9696449,60.9949614 Z" id="Combined-Shape" fill="#BED9DE"></path>
                        <path d="M77.9501168,100.678005 C77.9501168,100.678005 75.0515324,95.9385012 77.9501168,92.8037647 C80.8487012,89.6690281 85.1053994,92.5742347 85.1053994,92.5742347 C85.1053994,92.5742347 79.8679475,88.2629142 76.4510444,92.5742346 C73.0341412,96.8855551 77.9501168,100.678005 77.9501168,100.678005 Z" id="Path-15" fill="#6C9299"></path>
                        <path d="M4.66007064,71.4902971 C4.66007064,71.4902971 8.95303188,71.3987817 10.0442335,73.6477168 C11.135435,75.8966519 8.39943061,78.6125491 8.39943061,78.6125491 C8.39943061,78.6125491 12.0268929,76.2383969 10.9535017,73.1830564 C9.80333748,69.9091862 4.66007064,71.4902971 4.66007064,71.4902971 Z" id="Path-16" fill="#557378"></path>
                    </g>
                </g>
            </g>
        </g>
    </g>
</svg>