<?xml version="1.0" encoding="UTF-8"?>
<svg width="161px" height="18px" viewBox="0 0 161 18" version="1.1" xmlns="http://www.w3.org/2000/svg" xmlns:xlink="http://www.w3.org/1999/xlink">
    <!-- Generator: Sketch 43.2 (39069) - http://www.bohemiancoding.com/sketch -->
    <title>logo/bangbanglogo</title>
    <desc>Created with Sketch.</desc>
    <defs></defs>
    <g id="Page-3" stroke="none" stroke-width="1" fill="none" fill-rule="evenodd">
        <g id="Project-Details-Bangbang" transform="translate(-560.000000, -485.000000)" fill="#000000">
            <g id="Group" transform="translate(180.000000, 72.000000)">
                <g id="logo/bangbanglogo" transform="translate(380.000000, 413.000000)">
                    <path d="M6.26646707,16.05344 C6.26646707,17.1376 7.12070795,18 8.19461078,18 C9.26851361,18 10.1227545,17.1376 10.1227545,16.05344 C10.1227545,14.96928 9.26851361,14.08224 8.19461078,14.08224 C7.12070795,14.08224 6.26646707,14.96928 6.26646707,16.05344 Z M6.26646707,13.2 L10.1227545,13.2 L10.1227545,0 L6.26646707,0 L6.26646707,13.2 Z" id="!!"></path>
                    <path d="M0,16.05344 C0,17.1376 0.854240885,18 1.92814371,18 C3.00204654,18 3.85628743,17.1376 3.85628743,16.05344 C3.85628743,14.96928 3.00204654,14.08224 1.92814371,14.08224 C0.854240885,14.08224 0,14.96928 0,16.05344 Z M0,13.2 L3.85628743,13.2 L3.85628743,0 L0,0 L0,13.2 Z" id="!!"></path>
                    <path d="M19.6911677,14.112 L19.6911677,10.992 L22.8726048,10.992 C23.6920659,10.992 24.4392216,11.688 24.4392216,12.552 C24.4392216,13.416 23.7402695,14.112 22.8726048,14.112 L19.6911677,14.112 Z M19.6911677,7.032 L19.6911677,3.912 L21.9808383,3.912 C22.848503,3.912 23.5474551,4.608 23.5474551,5.472 C23.5474551,6.336 22.848503,7.032 21.9808383,7.032 L19.6911677,7.032 Z M23.8607784,18 C26.7288922,18 29.1631737,15.576 29.1631737,12.72 C29.1631737,11.088 28.3437126,9.576 27.114521,8.592 C27.8134731,7.704 28.2714072,6.576 28.2714072,5.352 C28.2714072,2.472 25.813024,0 22.9208084,0 L14.9431138,0 L14.9431138,18 L23.8607784,18 Z M34.3450599,18 L35.4296407,15.648 L42.8288922,15.648 L43.9375749,18 L48.6856287,18 L40.1776946,0 L38.0326347,0 L29.597006,18 L34.3450599,18 Z M39.1413174,7.704 L40.9730539,11.664 L37.285479,11.664 L39.1413174,7.704 Z M66.3281437,18 L66.3281437,0 L61.5800898,0 L61.5800898,8.496 L53.0239521,0 L51.0958084,0 L51.0958084,18 L55.8438623,18 L55.8438623,9.48 L64.3758982,18 L66.3281437,18 Z M77.7523952,8.328 L77.7523952,11.496 L81.2471557,11.496 C80.5,12.576 79.1744012,13.272 77.7523952,13.272 C75.5350299,13.272 73.4863772,11.472 73.4863772,9 C73.4863772,6.528 75.4868263,4.728 77.7523952,4.728 C78.9815868,4.728 79.9938623,5.208 80.7651198,5.928 L84.1152695,2.616 C82.4763473,1.008 80.2348802,0 77.7523952,0 C72.7633234,0 68.7383234,4.032 68.7383234,9 C68.7383234,13.968 72.7633234,18 77.7523952,18 C82.7414671,18 86.7905689,13.968 86.7905689,9 L86.7905689,8.328 L77.7523952,8.328 Z M93.9005988,14.112 L93.9005988,10.992 L97.0820359,10.992 C97.901497,10.992 98.6486527,11.688 98.6486527,12.552 C98.6486527,13.416 97.9497006,14.112 97.0820359,14.112 L93.9005988,14.112 Z M93.9005988,7.032 L93.9005988,3.912 L96.1902695,3.912 C97.0579341,3.912 97.7568862,4.608 97.7568862,5.472 C97.7568862,6.336 97.0579341,7.032 96.1902695,7.032 L93.9005988,7.032 Z M98.0702096,18 C100.938323,18 103.372605,15.576 103.372605,12.72 C103.372605,11.088 102.553144,9.576 101.323952,8.592 C102.022904,7.704 102.480838,6.576 102.480838,5.352 C102.480838,2.472 100.022455,0 97.1302395,0 L89.1525449,0 L89.1525449,18 L98.0702096,18 Z M108.554491,18 L109.639072,15.648 L117.038323,15.648 L118.147006,18 L122.89506,18 L114.387126,0 L112.242066,0 L103.806437,18 L108.554491,18 Z M113.350749,7.704 L115.182485,11.664 L111.49491,11.664 L113.350749,7.704 Z M140.537575,18 L140.537575,0 L135.789521,0 L135.789521,8.496 L127.233383,0 L125.30524,0 L125.30524,18 L130.053293,18 L130.053293,9.48 L138.585329,18 L140.537575,18 Z M151.961826,8.328 L151.961826,11.496 L155.456587,11.496 C154.709431,12.576 153.383832,13.272 151.961826,13.272 C149.744461,13.272 147.695808,11.472 147.695808,9 C147.695808,6.528 149.696257,4.728 151.961826,4.728 C153.191018,4.728 154.203293,5.208 154.974551,5.928 L158.324701,2.616 C156.685778,1.008 154.444311,0 151.961826,0 C146.972754,0 142.947754,4.032 142.947754,9 C142.947754,13.968 146.972754,18 151.961826,18 C156.950898,18 161,13.968 161,9 L161,8.328 L151.961826,8.328 Z" id="bangbang"></path>
                </g>
            </g>
        </g>
    </g>
</svg>