<?xml version="1.0" encoding="UTF-8"?>
<svg width="147px" height="18px" viewBox="0 0 147 18" version="1.1" xmlns="http://www.w3.org/2000/svg" xmlns:xlink="http://www.w3.org/1999/xlink">
    <!-- Generator: Sketch 43.2 (39069) - http://www.bohemiancoding.com/sketch -->
    <title>logo/progresslylogo</title>
    <desc>Created with Sketch.</desc>
    <defs></defs>
    <g id="Page-3" stroke="none" stroke-width="1" fill="none" fill-rule="evenodd">
        <g id="Project-Details-Dashboard" transform="translate(-567.000000, -469.000000)" fill-rule="nonzero">
            <g id="Group" transform="translate(180.000000, 29.000000)">
                <g id="logo/progresslylogo" transform="translate(387.000000, 440.000000)">
                    <path d="M5.10647843,8.44274105 C6.26892881,8.44274105 7.24507575,7.4782544 7.24507575,6.21424106 C7.24507575,5.03542405 6.26892881,4.13523651 5.10647843,4.13523651 L2.69854551,4.13523651 L2.69854551,8.44274105 L5.10647843,8.44274105 L5.10647843,8.44274105 Z M0,1.90673653 C0,1.69240616 0.16606434,1.49950882 0.394402805,1.49950882 L5.27254277,1.49950882 C7.82578198,1.49950882 9.92286322,3.64227666 9.92286322,6.23567409 C9.92286322,8.89283481 7.82578198,11.0570357 5.29381976,11.0570357 L2.69854551,11.0570357 L2.69854551,16.0932635 C2.69854551,16.3075938 2.51172313,16.5004912 2.30414271,16.5004912 L0.394402805,16.5004912 C0.16606434,16.5004912 0,16.3075938 0,16.0932635 L0,1.90673653 L0,1.90673653 Z M17.910039,8.33557586 C19.0102152,8.33557586 19.9656041,7.34965618 19.9656041,6.14994196 C19.9656041,5.01399102 19.0102152,4.07093739 17.910039,4.07093739 L14.5264781,4.07093739 L14.5264781,8.33557586 L17.910039,8.33557586 L17.910039,8.33557586 Z M11.8071745,1.90673653 C11.8071745,1.69240616 11.9732389,1.49950882 12.2015773,1.49950882 L18.1388963,1.49950882 C20.6298615,1.49950882 22.6636307,3.55708035 22.6636307,6.10707588 C22.6636307,8.07837943 21.3973901,9.68585718 19.5914405,10.4360135 L22.4352922,15.8789331 C22.5811174,16.1575626 22.4352922,16.5004912 22.0824055,16.5004912 L19.90333,16.5004912 C19.7165076,16.5004912 19.6121984,16.3927902 19.5706824,16.3075938 L16.8098628,10.6289108 L14.50572,10.6289108 L14.50572,16.0932635 C14.50572,16.3075938 14.3188976,16.5004912 14.1113172,16.5004912 L12.2015773,16.5004912 C11.9732389,16.5004912 11.8071745,16.3075938 11.8071745,16.0932635 L11.8071745,1.90673653 L11.8071745,1.90673653 Z M31.599968,13.9285268 C34.2160002,13.9285268 36.3743176,11.7214598 36.3743176,9.02143304 C36.3743176,6.32140624 34.2160002,4.07093739 31.599968,4.07093739 C28.9844546,4.07093739 26.8463762,6.32140624 26.8463762,9.02143304 C26.8463762,11.7214598 28.9844546,13.9285268 31.599968,13.9285268 L31.599968,13.9285268 L31.599968,13.9285268 Z M31.599968,1.28571429 C35.7520954,1.28571429 39.0733822,4.73536153 39.0733822,9.02143304 C39.0733822,13.3075045 35.7520954,16.7142857 31.599968,16.7142857 C27.4483594,16.7142857 24.1478307,13.3075045 24.1478307,9.02143304 C24.1478307,4.73536153 27.4483594,1.28571429 31.599968,1.28571429 L31.599968,1.28571429 L31.599968,1.28571429 Z M48.0325533,1.28571429 C49.9007771,1.28571429 51.6859687,2.03533474 53.0975157,3.27845087 C53.2635799,3.44991516 53.284338,3.7071116 53.1182736,3.87804007 L51.8312751,5.27118745 C51.6652107,5.44265175 51.4783883,5.44265175 51.2915658,5.27118745 C50.3989701,4.45673206 49.2987939,4.02860715 48.1571015,4.02860715 C45.5623462,4.02860715 43.5073,6.32140624 43.5073,9 C43.5073,11.6571607 45.5623462,13.9070938 48.1778596,13.9070938 C49.3403099,13.9070938 50.2329058,13.5432679 50.6480666,13.3718036 L50.6480666,11.5499955 L48.9874232,11.5499955 C48.7590848,11.5499955 48.5930204,11.3785312 48.5930204,11.1642009 L48.5930204,9.4715268 C48.5930204,9.23576341 48.7590848,9.06429911 48.9874232,9.06429911 L52.9729673,9.06429911 C53.1805478,9.06429911 53.3466121,9.25719645 53.3466121,9.4715268 L53.3466121,14.9573125 C53.3466121,15.1287768 53.2635799,15.235942 53.1805478,15.3002411 C53.1805478,15.3002411 51.0424694,16.6928527 48.0325533,16.6928527 C43.9017028,16.6928527 40.580416,13.3075045 40.580416,9.02143304 C40.580416,4.73536153 43.9017028,1.28571429 48.0325533,1.28571429 L48.0325533,1.28571429 L48.0325533,1.28571429 Z M62.3581973,8.33557586 C63.4583735,8.33557586 64.4132435,7.34965618 64.4132435,6.14994196 C64.4132435,5.01399102 63.4583735,4.07093739 62.3581973,4.07093739 L58.9746364,4.07093739 L58.9746364,8.33557586 L62.3581973,8.33557586 L62.3581973,8.33557586 Z M56.2548139,1.90673653 C56.2548139,1.69240616 56.4213971,1.49950882 56.6497356,1.49950882 L62.5865357,1.49950882 C65.0775008,1.49950882 67.111789,3.55708035 67.111789,6.10707588 C67.111789,8.07837943 65.8455484,9.68585718 64.0395988,10.4360135 L66.8834504,15.8789331 C67.0287568,16.1575626 66.8834504,16.5004912 66.5305638,16.5004912 L64.3509694,16.5004912 C64.164147,16.5004912 64.0603567,16.3927902 64.0188407,16.3075938 L61.258021,10.6289108 L58.9538783,10.6289108 L58.9538783,16.0932635 C58.9538783,16.3075938 58.7670559,16.5004912 58.5594755,16.5004912 L56.6497356,16.5004912 C56.4213971,16.5004912 56.2548139,16.3075938 56.2548139,16.0932635 L56.2548139,1.90673653 L56.2548139,1.90673653 Z M69.7433899,1.90673653 C69.7433899,1.69240616 69.9099731,1.49950882 70.1383115,1.49950882 L78.5863158,1.49950882 C78.8151733,1.49950882 78.9807186,1.69240616 78.9807186,1.90673653 L78.9807186,3.6637097 C78.9807186,3.87804007 78.8151733,4.07093739 78.5863158,4.07093739 L72.4419353,4.07093739 L72.4419353,7.58541959 L77.5696907,7.58541959 C77.7772711,7.58541959 77.9640935,7.77831691 77.9640935,7.99264728 L77.9640935,9.77105349 C77.9640935,10.0068169 77.7772711,10.178817 77.5696907,10.178817 L72.4419353,10.178817 L72.4419353,13.9285268 L78.5863158,13.9285268 C78.8151733,13.9285268 78.9807186,14.1214242 78.9807186,14.3357545 L78.9807186,16.0932635 C78.9807186,16.3075938 78.8151733,16.5004912 78.5863158,16.5004912 L70.1383115,16.5004912 C69.9099731,16.5004912 69.7433899,16.3075938 69.7433899,16.0932635 L69.7433899,1.90673653 L69.7433899,1.90673653 Z M80.7726567,14.4000536 L81.5199462,13.0717412 C81.6860105,12.7716786 82.0388973,12.7716786 82.2252007,12.9217099 C82.3295099,12.9854732 84.0103923,14.2500223 85.360184,14.2500223 C86.4396023,14.2500223 87.249166,13.5212991 87.249166,12.6002143 C87.249166,11.5071295 86.3565701,10.7569732 84.6128945,10.0282499 C82.6611196,9.21433037 80.7103825,7.92834817 80.7103825,5.39978567 C80.7103825,3.49278124 82.0804133,1.28571429 85.3809421,1.28571429 C87.4977435,1.28571429 89.1173897,2.39969637 89.5325506,2.72119191 C89.740131,2.84979014 89.8024051,3.21415176 89.6570988,3.42848213 L88.8682932,4.64962938 C88.7022289,4.90682583 88.3903393,5.07829011 88.1417617,4.90682583 C87.9751785,4.79966064 86.3980861,3.72854463 85.2563939,3.72854463 C84.0731854,3.72854463 83.4296861,4.5424642 83.4296861,5.22832137 C83.4296861,6.23567409 84.1977336,6.92153127 85.8791351,7.62828565 C87.8926652,8.46417408 90.217566,9.70729021 90.217566,12.4716161 C90.217566,14.6786831 88.3695813,16.7142857 85.4432162,16.7142857 C82.8277029,16.7142857 81.2910887,15.4502724 80.875928,15.0430447 C80.6896245,14.8501473 80.5858343,14.7429822 80.7726567,14.4000536 L80.7726567,14.4000536 L80.7726567,14.4000536 Z M91.7282325,14.4000536 L92.4755221,13.0717412 C92.6415863,12.7716786 92.9944731,12.7716786 93.1812955,12.9217099 C93.2850856,12.9854732 94.9664871,14.2500223 96.3157599,14.2500223 C97.395178,14.2500223 98.2047417,13.5212991 98.2047417,12.6002143 C98.2047417,11.5071295 97.3121459,10.7569732 95.5684703,10.0282499 C93.6172143,9.21433037 91.6659584,7.92834817 91.6659584,5.39978567 C91.6659584,3.49278124 93.0359891,1.28571429 96.336518,1.28571429 C98.4538383,1.28571429 100.072966,2.39969637 100.488126,2.72119191 C100.695707,2.84979014 100.757981,3.21415176 100.612675,3.42848213 L99.823869,4.64962938 C99.6578047,4.90682583 99.346434,5.07829011 99.0973376,4.90682583 C98.9312732,4.79966064 97.353662,3.72854463 96.2119696,3.72854463 C95.0287612,3.72854463 94.3852619,4.5424642 94.3852619,5.22832137 C94.3852619,6.23567409 95.1533095,6.92153127 96.8347109,7.62828565 C98.8482411,8.46417408 101.173142,9.70729021 101.173142,12.4716161 C101.173142,14.6786831 99.325676,16.7142857 96.3987921,16.7142857 C93.7832787,16.7142857 92.2466646,15.4502724 91.8315037,15.0430447 C91.6452003,14.8501473 91.5414101,14.7429822 91.7282325,14.4000536 L91.7282325,14.4000536 L91.7282325,14.4000536 Z M103.557722,1.90673653 C103.557722,1.69240616 103.723786,1.49950882 103.952125,1.49950882 L105.862384,1.49950882 C106.069445,1.49950882 106.256267,1.69240616 106.256267,1.90673653 L106.256267,13.9285268 L111.549568,13.9285268 C111.777907,13.9285268 111.943971,14.1214242 111.943971,14.3357545 L111.943971,16.0932635 C111.943971,16.3075938 111.777907,16.5004912 111.549568,16.5004912 L103.952125,16.5004912 C103.723786,16.5004912 103.557722,16.3075938 103.557722,16.0932635 L103.557722,1.90673653 L103.557722,1.90673653 Z M114.940913,9.27862947 L110.20808,2.12106689 C110.042534,1.84243742 110.20808,1.49950882 110.540208,1.49950882 L112.658048,1.49950882 C112.823593,1.49950882 112.927383,1.60667401 112.989657,1.69240616 L116.310944,6.62093293 L119.632231,1.69240616 C119.695024,1.60667401 119.798295,1.49950882 119.96436,1.49950882 L122.102438,1.49950882 C122.435086,1.49950882 122.600631,1.84243742 122.435086,2.12106689 L117.639459,9.25719645 L117.639459,16.0932635 C117.639459,16.3075938 117.452636,16.5004912 117.245056,16.5004912 L115.335835,16.5004912 C115.106978,16.5004912 114.940913,16.3075938 114.940913,16.0932635 L114.940913,9.27862947 L114.940913,9.27862947 Z" id="plylogocopy" fill="#111111"></path>
                    <path d="M146.839146,8.21911422 L143.134093,0.779720279 C142.920206,0.350815851 142.351592,0 141.87122,0 L129.821036,0 C129.340664,0 128.947368,0.391608392 128.947368,0.871794872 L128.947368,17.1282051 C128.947368,17.6066433 129.340664,18 129.821036,18 L141.87122,18 C142.351592,18 142.920206,17.6474359 143.134093,17.2185314 L146.839146,9.78088578 C147.053618,9.3513986 147.053618,8.6486014 146.839146,8.21911422" id="plylogobox" fill="#62AB32"></path>
                </g>
            </g>
        </g>
    </g>
</svg>