<?xml version="1.0" encoding="UTF-8"?>
<svg width="24px" height="24px" viewBox="0 0 24 24" version="1.1" xmlns="http://www.w3.org/2000/svg" xmlns:xlink="http://www.w3.org/1999/xlink">
    <!-- Generator: sketchtool 41.2 (35397) - http://www.bohemiancoding.com/sketch -->
    <title>0A134B1B-DB95-48DE-950C-E14BD7E5DC85</title>
    <desc>Created with sketchtool.</desc>
    <defs></defs>
    <g id="Page-2" stroke="none" stroke-width="1" fill="none" fill-rule="evenodd">
        <g id="Button-Styles" transform="translate(-72.000000, -529.000000)">
            <g id="Group-3" transform="translate(38.000000, 529.000000)">
                <g id="logo_dribbble" transform="translate(34.000000, 0.000000)">
                    <path d="M11.455,9.985 C10.036,10.402 8.345,10.617 6.388,10.631 C6.793,8.977 7.906,7.601 9.391,6.847 C10.168,7.863 10.855,8.91 11.455,9.985 Z M12.42,11.915 C12.296,11.635 12.166,11.356 12.029,11.08 C10.407,11.59 8.468,11.849 6.225,11.852 L6.217,12 C6.217,13.404 6.721,14.692 7.557,15.695 C8.823,13.794 10.448,12.531 12.42,11.915 Z M8.45,16.556 C10.019,17.781 12.121,18.145 14.074,17.392 C13.822,15.904 13.424,14.452 12.884,13.04 C11.065,13.582 9.599,14.754 8.45,16.556 Z M15.525,7.426 C14.548,6.672 13.328,6.217 12,6.217 C11.51,6.217 11.036,6.285 10.582,6.401 C11.346,7.429 12.023,8.487 12.617,9.573 C13.853,9.049 14.821,8.333 15.525,7.426 Z M24,12 C24,18.627 18.627,24 12,24 C5.373,24 0,18.627 0,12 C0,5.373 5.373,0 12,0 C18.627,0 24,5.373 24,12 Z M19,12 C19,8.134 15.865,5 12,5 C8.135,5 5,8.134 5,12 C5,15.866 8.135,19 12,19 C15.865,19 19,15.866 19,12 Z M13.176,10.651 C13.333,10.975 13.481,11.302 13.623,11.631 C14.883,11.414 16.264,11.427 17.766,11.673 C17.693,10.381 17.2,9.199 16.412,8.27 C15.605,9.275 14.522,10.068 13.176,10.651 L13.176,10.651 Z M14.09,12.783 C14.579,14.092 14.955,15.434 15.209,16.806 C16.521,15.926 17.45,14.522 17.706,12.897 C16.389,12.669 15.184,12.629 14.09,12.783 L14.09,12.783 Z" id="Shape" fill="#8891B3"></path>
                    <rect id="Rectangle-Copy-4" x="0" y="0" width="24" height="24"></rect>
                </g>
            </g>
        </g>
    </g>
</svg>