<?xml version="1.0" encoding="UTF-8"?>
<svg width="24px" height="24px" viewBox="0 0 24 24" version="1.1" xmlns="http://www.w3.org/2000/svg" xmlns:xlink="http://www.w3.org/1999/xlink">
    <!-- Generator: sketchtool 41.2 (35397) - http://www.bohemiancoding.com/sketch -->
    <title>0757977B-926D-4998-9E1E-8882964968C9</title>
    <desc>Created with sketchtool.</desc>
    <defs></defs>
    <g id="Page-1" stroke="none" stroke-width="1" fill="none" fill-rule="evenodd">
        <g id="Footer" transform="translate(-709.000000, -225.000000)">
            <g id="Group-3">
                <g transform="translate(547.000000, 225.000000)">
                    <g id="logo_insta" transform="translate(162.000000, 0.000000)">
                        <path d="M17.25,7.288 L17.25,8.557 C17.25,8.854 17.009,9.096 16.712,9.096 L15.443,9.096 C15.144,9.096 14.905,8.854 14.905,8.557 L14.905,7.288 C14.905,6.991 15.144,6.75 15.443,6.75 L16.712,6.75 C17.009,6.75 17.25,6.991 17.25,7.288 Z M12,14.691 C13.486,14.691 14.693,13.486 14.693,11.999 C14.693,10.512 13.486,9.309 12,9.309 C10.513,9.309 9.309,10.513 9.309,12 C9.309,13.487 10.513,14.691 12,14.691 Z M16.261,11.4 C16.289,11.596 16.307,11.796 16.307,11.999 C16.307,14.379 14.379,16.307 12,16.307 C9.621,16.307 7.693,14.379 7.693,12 C7.693,11.796 7.711,11.597 7.739,11.401 C7.766,11.207 7.805,11.018 7.857,10.834 L6.75,10.834 L6.75,16.713 C6.75,17.01 6.991,17.251 7.288,17.251 L16.712,17.251 C17.009,17.251 17.25,17.01 17.25,16.713 L17.25,10.834 L16.143,10.834 C16.193,11.018 16.233,11.207 16.261,11.4 L16.261,11.4 Z M24,12 C24,18.627 18.627,24 12,24 C5.373,24 0,18.627 0,12 C0,5.373 5.373,0 12,0 C18.627,0 24,5.373 24,12 L24,12 Z M19,6.615 C19,5.723 18.277,5 17.385,5 L6.615,5 C5.723,5 5,5.723 5,6.615 L5,17.384 C5,18.277 5.723,19 6.615,19 L17.385,19 C18.277,19 19,18.277 19,17.384 L19,6.615 L19,6.615 Z" id="Shape" fill="#8891B3"></path>
                        <rect id="Rectangle-Copy-2" x="0" y="0" width="24" height="24"></rect>
                    </g>
                </g>
            </g>
        </g>
    </g>
</svg>