<?xml version="1.0" encoding="UTF-8"?>
<svg width="24px" height="24px" viewBox="0 0 24 24" version="1.1" xmlns="http://www.w3.org/2000/svg" xmlns:xlink="http://www.w3.org/1999/xlink">
    <!-- Generator: Sketch 43.2 (39069) - http://www.bohemiancoding.com/sketch -->
    <title>Icon/iterate</title>
    <desc>Created with Sketch.</desc>
    <defs></defs>
    <g id="Case-Studies" stroke="none" stroke-width="1" fill="none" fill-rule="evenodd">
        <g id="Canopy-Case-Study" transform="translate(-180.000000, -8634.000000)">
            <g id="Iterate" transform="translate(85.000000, 8631.000000)">
                <g id="Iterate-Title">
                    <g id="Icon/iterate" transform="translate(95.000000, 3.000000)">
                        <rect id="Rectangle-11" x="0" y="0" width="24" height="24"></rect>
                        <g id="shapes">
                            <path d="M12,23 C18.0751322,23 22,18.0751322 22,12 C22,5.92486775 18.0751322,1 12,1 C5.92486775,1 2,5.92486775 2,12 C2,18.0751322 5.92486775,23 12,23 Z" id="Oval-5" fill="#FFFFFF"></path>
                            <g id="Group" transform="translate(1.000000, 0.000000)">
                                <path d="M21.2639778,10.9502882 L20.2923847,9.25 L21.9117069,9.25 L21.2639778,10.9502882 Z" id="Path-9" stroke="#292E41" stroke-width="1.5"></path>
                                <path d="M0,10 C0,3.92486775 4.92486775,0 11,0 C17.0751322,0 22,3.92486775 22,10 L20.5,10 C20.5,4.99215328 16.506276,1.5 11,1.5 C5.49372404,1.5 1.5,4.99215328 1.5,10 L0,10 Z M1.5,10 L0,10 C0,3.92486775 4.92486775,0 11,0 C17.0751322,0 22,3.92486775 22,10 L20.5,10 C20.5,4.99215328 16.506276,1.5 11,1.5 C5.49372404,1.5 1.5,4.99215328 1.5,10 Z" id="Oval-2" fill="#292E41" fill-rule="nonzero"></path>
                            </g>
                            <g id="Group-Copy" transform="translate(11.500000, 17.500000) rotate(-180.000000) translate(-11.500000, -17.500000) translate(0.000000, 11.000000)">
                                <path d="M21.2639778,10.9502882 L20.2923847,9.25 L21.9117069,9.25 L21.2639778,10.9502882 Z" id="Path-9" stroke="#292E41" stroke-width="1.5"></path>
                                <path d="M3.55271368e-15,10 C3.55271368e-15,3.92486775 4.92486775,0 11,0 C17.0751322,0 22,3.92486775 22,10 L20.5,10 C20.5,4.99215328 16.506276,1.5 11,1.5 C5.49372404,1.5 1.5,4.99215328 1.5,10 L3.55271368e-15,10 Z M1.5,10 L3.55271368e-15,10 C3.55271368e-15,3.92486775 4.92486775,0 11,0 C17.0751322,0 22,3.92486775 22,10 L20.5,10 C20.5,4.99215328 16.506276,1.5 11,1.5 C5.49372404,1.5 1.5,4.99215328 1.5,10 Z" id="Oval-2" fill="#292E41" fill-rule="nonzero"></path>
                            </g>
                            <polygon id="Path-11" fill="#5BC876" points="13 2.5 12 10.5 18 10.5 12 21.5 13 13.5 7 13.5"></polygon>
                        </g>
                    </g>
                </g>
            </g>
        </g>
    </g>
</svg>